<svg xmlns="http://www.w3.org/2000/svg" viewBox="0 0 107 100" width="107" height="100">
	<defs>
		<clipPath clipPathUnits="userSpaceOnUse" id="cp1">
			<path d="M0 0L107 0L107 100L0 100Z" />
		</clipPath>
	</defs>
	<style>
		tspan { white-space:pre }
		.shp0 { fill: #62e6ac } 
		.shp1 { fill: #000000 } 
		.shp2 { fill: #ffffff } 
	</style>
	<g id="Page 1" clip-path="url(#cp1)">
		<path id="Path 1" class="shp0" d="M50 99.37C22.71 99.37 0.5 77.16 0.5 49.87C0.5 22.57 22.71 0.37 50 0.37C77.29 0.37 99.5 22.57 99.5 49.87C99.5 77.16 77.29 99.37 50 99.37Z" />
		<path id="Path 2" fill-rule="evenodd" class="shp1" d="M100 49.87C100 77.48 77.61 99.87 50 99.87C22.39 99.87 0 77.48 0 49.87C0 22.25 22.39 -0.13 50 -0.13C77.61 -0.13 100 22.25 100 49.87ZM1 49.87C1 76.89 22.98 98.87 50 98.87C77.02 98.87 99 76.89 99 49.87C99 22.85 77.02 0.87 50 0.87C22.98 0.87 1 22.85 1 49.87Z" />
		<path id="Path 3" class="shp2" d="M35 56.37C20.94 56.37 9.5 44.93 9.5 30.87C9.5 16.81 20.94 5.37 35 5.37C49.06 5.37 60.5 16.81 60.5 30.87C60.5 44.93 49.06 56.37 35 56.37Z" />
		<path id="Path 4" fill-rule="evenodd" class="shp1" d="M61 30.87C61 45.23 49.36 56.87 35 56.87C20.64 56.87 9 45.23 9 30.87C9 16.51 20.64 4.87 35 4.87C49.36 4.87 61 16.51 61 30.87ZM10 30.87C10 44.65 21.22 55.87 35 55.87C48.78 55.87 60 44.65 60 30.87C60 17.08 48.78 5.87 35 5.87C21.22 5.87 10 17.08 10 30.87Z" />
		<path id="Path 5" class="shp0" d="M52.5 54.37C49.19 54.37 46.5 51.68 46.5 48.37C46.5 45.06 49.19 42.37 52.5 42.37C55.81 42.37 58.5 45.06 58.5 48.37C58.5 51.68 55.81 54.37 52.5 54.37Z" />
		<path id="Path 6" fill-rule="evenodd" class="shp1" d="M59 48.37C59 51.96 56.09 54.87 52.5 54.87C48.91 54.87 46 51.96 46 48.37C46 44.78 48.91 41.87 52.5 41.87C56.09 41.87 59 44.78 59 48.37ZM47 48.37C47 51.4 49.47 53.87 52.5 53.87C55.53 53.87 58 51.4 58 48.37C58 45.33 55.53 42.87 52.5 42.87C49.47 42.87 47 45.33 47 48.37Z" />
		<path id="Path 7" class="shp2" d="M100.5 54.37C97.19 54.37 94.5 51.68 94.5 48.37C94.5 45.06 97.19 42.37 100.5 42.37C103.81 42.37 106.5 45.06 106.5 48.37C106.5 51.68 103.81 54.37 100.5 54.37Z" />
		<path id="Path 8" fill-rule="evenodd" class="shp1" d="M107 48.37C107 51.96 104.09 54.87 100.5 54.87C96.91 54.87 94 51.96 94 48.37C94 44.78 96.91 41.87 100.5 41.87C104.09 41.87 107 44.78 107 48.37ZM95 48.37C95 51.4 97.47 53.87 100.5 53.87C103.53 53.87 106 51.4 106 48.37C106 45.33 103.53 42.87 100.5 42.87C97.47 42.87 95 45.33 95 48.37Z" />
		<path id="Path 9" class="shp2" d="M38.7 71.15L55.36 98.97L22.94 99.49L38.7 71.15Z" />
		<path id="Path 10" fill-rule="evenodd" class="shp1" d="M56.24 99.46L22.08 100L38.69 70.15L56.24 99.46ZM23.79 98.97L54.49 98.48L38.72 72.15L23.79 98.97Z" />
	</g>
</svg>